<?xml version="1.0" encoding="UTF-8"?>
<svg xmlns="http://www.w3.org/2000/svg" xmlns:xlink="http://www.w3.org/1999/xlink" width="50.31pt" height="25.04pt" viewBox="0 0 1043.31 350.04" version="1.1">
<defs>
<clipPath id="clip1">
    <path d="M 0 0 L 69 0 L 69 350.039063 L 0 350.039063 Z M 0 0 "/>
</clipPath>
<clipPath id="clip2">
    <path d="M 810 0 L 1043.308594 0 L 1043.308594 350.039063 L 810 350.039063 Z M 810 0 "/>
</clipPath>
</defs>
<g id="surface1">
<path style=" stroke:none;fill-rule:nonzero;fill:rgb(13.699341%,12.199402%,12.5%);fill-opacity:1;" d="M 678.839844 349.96875 L 678.839844 326.683594 L 719.75 326.683594 L 719.75 22.5625 L 678.839844 22.5625 L 678.839844 0.0585938 L 747.324219 0.0585938 L 747.324219 349.96875 "/>
<g clip-path="url(#clip1)" clip-rule="nonzero">
<path style=" stroke:none;fill-rule:nonzero;fill:rgb(13.699341%,12.199402%,12.5%);fill-opacity:1;" d="M 0.0976563 350.019531 L 0 0.078125 L 68.714844 0.078125 L 68.8125 23.070313 L 27.765625 23.070313 L 27.765625 327.289063 L 68.8125 327.289063 L 68.8125 350.019531 "/>
</g>
<path style=" stroke:none;fill-rule:nonzero;fill:rgb(13.699341%,12.199402%,12.5%);fill-opacity:1;" d="M 258.105469 231.761719 C 263.078125 228.808594 268.085938 225.84375 273.121094 222.789063 C 315.980469 195.933594 357.828125 164.511719 357.828125 102.292969 C 357.828125 41.109375 313.273438 0 246.949219 0 C 212.691406 0 183.820313 11.320313 163.453125 32.726563 C 142.050781 55.21875 131.28125 88.039063 133.128906 125.152344 L 133.3125 128.90625 L 182.054688 128.90625 L 181.914063 124.816406 C 181.027344 99.335938 188.863281 75.460938 202.878906 60.949219 C 213.675781 49.761719 227.6875 44.089844 244.519531 44.089844 C 280.488281 44.089844 306.597656 68.355469 306.597656 101.78125 C 306.597656 145.507813 281.894531 165.101563 221.230469 202.550781 C 169.9375 234.351563 130.164063 265.058594 123.4375 345.375 L 123.082031 349.660156 L 354.566406 349.660156 L 354.566406 305.558594 L 180.089844 305.558594 C 189.007813 272.675781 222.621094 252.773438 258.105469 231.761719 "/>
<path style=" stroke:none;fill-rule:nonzero;fill:rgb(13.699341%,12.199402%,12.5%);fill-opacity:1;" d="M 424.699219 225.640625 L 527.996094 73.617188 L 527.996094 225.640625 Z M 574.476563 225.640625 L 574.476563 0 L 526.734375 0 L 378.859375 214.894531 L 378.148438 224.917969 L 378.148438 269.628906 L 527.996094 269.628906 L 527.996094 349.660156 L 574.476563 349.660156 L 574.476563 269.628906 L 620.714844 269.628906 L 620.714844 225.640625 "/>
<g clip-path="url(#clip2)" clip-rule="nonzero">
<path style=" stroke:none;fill-rule:nonzero;fill:rgb(94.508362%,54.116821%,0.392151%);fill-opacity:1;" d="M 810.019531 0.152344 L 810.019531 47.441406 L 987.429688 47.441406 C 910.289063 132.117188 862.203125 240.324219 855.132813 345.75 L 854.851563 350.039063 L 909.652344 350.039063 L 909.871094 346.253906 C 916.054688 240.339844 971.667969 112.71875 1042.109375 42.804688 L 1043.308594 41.625 L 1043.308594 0.152344 "/>
</g>
</g>
</svg>
